<?xml version="1.0" encoding="iso-8859-1"?>
<!-- Generator: Adobe Illustrator 17.1.0, SVG Export Plug-In . SVG Version: 6.00 Build 0)  -->
<!DOCTYPE svg PUBLIC "-//W3C//DTD SVG 1.1//EN" "http://www.w3.org/Graphics/SVG/1.1/DTD/svg11.dtd">
<svg version="1.1" id="Capa_1" xmlns="http://www.w3.org/2000/svg" xmlns:xlink="http://www.w3.org/1999/xlink" x="0px" y="0px"
	 viewBox="0 0 205.417 205.417" style="enable-background:new 0 0 205.417 205.417;" xml:space="preserve">
<path d="M102.708,205.417C46.075,205.417,0,159.342,0,102.709S46.075,0,102.708,0c56.634,0,102.709,46.075,102.709,102.708
	S159.342,205.417,102.708,205.417z M102.708,6C49.383,6,6,49.383,6,102.709s43.383,96.708,96.708,96.708
	s96.709-43.383,96.709-96.708S156.033,6,102.708,6z M102.708,188.667c-47.397,0-85.958-38.561-85.958-85.958
	S55.311,16.75,102.708,16.75s85.958,38.561,85.958,85.958S150.105,188.667,102.708,188.667z M102.708,22.75
	c-44.089,0-79.958,35.869-79.958,79.958s35.869,79.958,79.958,79.958s79.958-35.869,79.958-79.958S146.797,22.75,102.708,22.75z
	 M102.708,177.208c-1.657,0-3-1.343-3-3v-6.667c0-1.657,1.343-3,3-3c1.657,0,3,1.343,3,3v6.667
	C105.708,175.865,104.365,177.208,102.708,177.208z M102.708,115.209c-6.893,0-12.5-5.607-12.5-12.5c0-4.301,2.183-8.102,5.5-10.352
	V35.479c0-3.86,3.14-7,7-7c3.859,0,7,3.14,7,7v56.878c1.318,0.895,2.457,2.033,3.352,3.352h30.253c3.859,0,7,3.14,7,7s-3.141,7-7,7
	H113.06C110.81,113.025,107.009,115.209,102.708,115.209z M102.708,96.209c-3.584,0-6.5,2.916-6.5,6.5s2.916,6.5,6.5,6.5
	s6.5-2.916,6.5-6.5S106.292,96.209,102.708,96.209z M115.208,103.709h28.104c0.552,0,1-0.449,1-1s-0.448-1-1-1h-28.104V103.709z
	 M101.708,90.209h2V35.479c0-0.551-0.448-1-1-1c-0.551,0-1,0.449-1,1V90.209z M174.227,106.492h-6.667c-1.657,0-3-1.343-3-3
	s1.343-3,3-3h6.667c1.657,0,3,1.343,3,3S175.884,106.492,174.227,106.492z M39.727,106.492H33.06c-1.657,0-3-1.343-3-3s1.343-3,3-3
	h6.667c1.657,0,3,1.343,3,3S41.383,106.492,39.727,106.492z"/>
<g>
</g>
<g>
</g>
<g>
</g>
<g>
</g>
<g>
</g>
<g>
</g>
<g>
</g>
<g>
</g>
<g>
</g>
<g>
</g>
<g>
</g>
<g>
</g>
<g>
</g>
<g>
</g>
<g>
</g>
</svg>
